<svg width="49" height="50" viewBox="0 0 49 50" fill="none" xmlns="http://www.w3.org/2000/svg">
    <path d="M14.8429 14.197C16.1189 10.4474 14.1124 6.37199 10.3621 5.09579C6.61187 3.8196 2.53735 5.82567 1.26138 9.57526C-0.015495 13.3275 1.98946 17.4009 5.74039 18.6773C9.49132 19.9538 13.566 17.9493 14.8429 14.197Z" fill="white"/>
    <path d="M43.783 17.9488C40.0334 16.6729 35.9582 18.6787 34.6823 22.4283C33.4054 26.1805 35.4122 30.2531 39.1617 31.529C42.912 32.8052 46.9863 30.8021 48.2632 27.0498C49.5391 23.3002 47.534 19.2252 43.783 17.9488Z" fill="white"/>
    <path d="M32.7328 30.1988C32.4587 29.4563 32.0197 28.5553 31.4928 27.5878C30.3482 24.2375 27.7299 21.4309 24.1195 20.2023C20.9063 19.1089 17.5548 19.4865 14.7755 20.9598C13.2724 21.5742 11.9061 22.2083 10.9742 22.7952L10.3525 23.182C7.45348 24.983 3.84541 27.2232 2.06937 32.5038C0.42072 37.4078 3.05249 42.7524 7.93633 44.4144C9.29065 44.8785 10.7339 45.0235 12.1535 44.838C13.5731 44.6525 14.9306 44.1416 16.1202 43.345C16.577 44.7022 17.3413 45.9355 18.3534 46.9486C19.3656 47.9616 20.5983 48.727 21.9551 49.1849C26.8369 50.8462 32.1815 48.2166 33.8672 43.3244C35.6807 38.0566 34.1874 34.0804 32.9893 30.8852L32.7328 30.1988Z" fill="white"/>
    <path d="M26.064 16.0311C30.1965 17.4374 34.6865 15.2274 36.0927 11.0949C37.499 6.96249 35.2889 2.4725 31.1565 1.06626C27.0241 -0.339991 22.5341 1.87002 21.1278 6.00246C19.7216 10.1349 21.9316 14.6249 26.064 16.0311Z" fill="white"/>
    </svg>