<svg width="94" height="94" viewBox="0 0 94 94" fill="none" xmlns="http://www.w3.org/2000/svg">
<path d="M36.6852 25.7643L52.6324 31.2758V53.7595C52.6324 54.1962 52.4531 54.6151 52.134 54.9239C51.8148 55.2328 51.382 55.4062 50.9307 55.4062H44.1238C43.6725 55.4062 43.2396 55.2328 42.9205 54.9239C42.6014 54.6151 42.4221 54.1962 42.4221 53.7595V42.232H25.4049V53.7595C25.4049 54.1962 25.2256 54.6151 24.9065 54.9239C24.5873 55.2328 24.1545 55.4062 23.7032 55.4062H16.8963C16.445 55.4062 16.0121 55.2328 15.693 54.9239C15.3739 54.6151 15.1946 54.1962 15.1946 53.7595V31.7431C11.2423 30.3794 8.3877 26.7585 8.3877 22.4707C8.3877 21.5972 8.74627 20.7595 9.38454 20.1418C10.0228 19.5242 10.8885 19.1772 11.7911 19.1772C12.6938 19.1772 13.5595 19.5242 14.1977 20.1418C14.836 20.7595 15.1946 21.5972 15.1946 22.4707C15.1963 23.3437 15.5554 24.1805 16.1933 24.7978C16.8312 25.4151 17.6959 25.7626 18.598 25.7643H36.6852ZM62.8427 14.2368V17.5304C62.8427 19.2774 62.1256 20.9528 60.849 22.1882C59.5725 23.4235 57.8411 24.1175 56.0358 24.1175H52.6324V27.7795L39.0186 23.0749V7.64972C39.0186 6.18306 40.8501 5.44818 41.9233 6.48565L44.8247 9.2965H50.5287C51.689 9.2965 53.0546 10.1116 53.5726 11.1172L54.3341 12.59H61.141C61.5923 12.59 62.0252 12.7635 62.3443 13.0724C62.6634 13.3812 62.8427 13.8001 62.8427 14.2368ZM50.9307 14.2368C50.9307 13.9111 50.8309 13.5927 50.6439 13.3219C50.4569 13.0511 50.1911 12.84 49.8802 12.7154C49.5692 12.5908 49.2271 12.5582 48.897 12.6217C48.5669 12.6852 48.2637 12.8421 48.0257 13.0724C47.7877 13.3027 47.6256 13.5961 47.5599 13.9156C47.4943 14.235 47.528 14.5661 47.6568 14.867C47.7856 15.1679 48.0037 15.4251 48.2835 15.6061C48.5634 15.787 48.8924 15.8836 49.229 15.8836C49.6803 15.8836 50.1131 15.7101 50.4323 15.4013C50.7514 15.0924 50.9307 14.6736 50.9307 14.2368Z" fill="#242424"/>
<path d="M22.1032 35.5312C18.638 35.5312 15.4373 37.2503 13.5101 40.1145L6.29692 50.8123C5.44802 52.0737 4.99657 53.5572 5.00004 55.0739V72.123C4.99526 73.2653 5.37561 74.3765 6.08059 75.2798C6.78557 76.183 7.7747 76.8264 8.89067 77.1077L15.6189 78.7985C16.1027 81.1113 17.3736 83.1887 19.2183 84.682C21.063 86.1754 23.3692 86.9938 25.75 87C30.5537 87 34.5636 83.7034 35.7204 79.2797H59.8734C61.0302 83.7034 65.0401 87 69.8438 87C74.6474 87 78.6573 83.7034 79.8141 79.2797H82.8125C85.6501 79.2797 88 76.9482 88 74.1328V64.7243C87.9975 62.4305 87.2225 60.2033 85.7981 58.3965C84.3737 56.5897 82.3816 55.3071 80.1383 54.7523L66.1139 51.2138L55.9828 39.2319C55.0136 38.0748 53.7997 37.1434 52.4272 36.5039C51.0546 35.8644 49.5571 35.5323 48.0407 35.5312H22.1032ZM22.1032 40.6781H33.5313V50.9719H12.4571L17.808 43.0097V42.9299C18.2779 42.2296 18.9167 41.6568 19.6663 41.2636C20.416 40.8704 21.2527 40.6691 22.1006 40.6781H22.1032ZM38.7188 40.6781H48.0407C49.5788 40.6781 51.0287 41.3524 52.0117 42.5284L59.1445 50.9719H38.7188V40.6781ZM10.1875 56.1187H64.332L78.9219 59.737C80.0414 60.0126 81.0345 60.6549 81.7406 61.56C82.4466 62.465 82.8243 63.5799 82.8125 64.7243V74.1328H79.8141C78.6573 69.7091 74.6474 66.4125 69.8438 66.4125C65.0401 66.4125 61.0302 69.7091 59.8734 74.1328H35.7204C34.5636 69.7091 30.5537 66.4125 25.75 66.4125C21.1513 66.4125 17.2892 69.4286 15.9431 73.5692L10.1875 72.1255V56.1187ZM25.75 71.5594C28.6473 71.5594 30.9375 73.8317 30.9375 76.7062C30.9375 79.5808 28.6473 81.8531 25.75 81.8531C22.8528 81.8531 20.5625 79.5808 20.5625 76.7062C20.5625 73.8317 22.8528 71.5594 25.75 71.5594ZM69.8438 71.5594C72.741 71.5594 75.0313 73.8317 75.0313 76.7062C75.0313 79.5808 72.741 81.8531 69.8438 81.8531C66.9465 81.8531 64.6563 79.5808 64.6563 76.7062C64.6563 73.8317 66.9465 71.5594 69.8438 71.5594Z" fill="#FFC41E"/>
</svg>
