<svg width="95" height="94" viewBox="0 0 95 94" fill="none" xmlns="http://www.w3.org/2000/svg">
<path fill-rule="evenodd" clip-rule="evenodd" d="M38.5615 19.2763C38.5615 17.8769 39.1168 16.5349 40.1051 15.5454C41.0934 14.5559 42.4339 14 43.8316 14L75.4522 14C76.8499 14 78.1904 14.5559 79.1787 15.5454C80.167 16.5349 80.7223 17.8769 80.7223 19.2763V32.4671H38.5615V19.2763ZM68.8646 21.9145C68.5151 21.9145 68.18 22.0534 67.9329 22.3008C67.6859 22.5482 67.5471 22.8837 67.5471 23.2335V25.8717C67.5471 26.2215 67.6859 26.557 67.9329 26.8044C68.18 27.0518 68.5151 27.1908 68.8646 27.1908H74.1347C74.4841 27.1908 74.8192 27.0518 75.0663 26.8044C75.3134 26.557 75.4522 26.2215 75.4522 25.8717V23.2335C75.4522 22.8837 75.3134 22.5482 75.0663 22.3008C74.8192 22.0534 74.4841 21.9145 74.1347 21.9145H68.8646Z" fill="#FFC41E"/>
<path d="M38.5615 37.7434V40.3816C38.5615 41.7809 39.1168 43.123 40.1051 44.1125C41.0934 45.102 42.4339 45.6579 43.8316 45.6579H75.4522C76.8499 45.6579 78.1904 45.102 79.1787 44.1125C80.167 43.123 80.7223 41.7809 80.7223 40.3816V37.7434H38.5615Z" fill="#FFC41E"/>
<mask id="path-3-inside-1" fill="white">
<rect x="2" y="38.6338" width="14.3347" height="41.3662" rx="2"/>
</mask>
<rect x="2" y="38.6338" width="14.3347" height="41.3662" rx="2" stroke="#242424" stroke-width="8" mask="url(#path-3-inside-1)"/>
<path d="M20.8538 45.6577V73.0945C27.1779 73.0945 29.1238 74.3778 35.61 74.7829C57.7081 81.7252 62.3714 79.3289 73.1273 73.0945C77.1064 70.7881 83.5726 65.7898 88.0491 62.1198C94.0591 56.1765 93.4546 54.6063 92.1055 53.2556C86.203 47.3461 79.8788 61.2756 68.0738 62.1198C58.984 62.7698 43.6206 61.2756 39.8261 61.2756" stroke="#242424" stroke-width="4"/>
<path d="M19.1675 45.6577C22.8214 45.3763 30.5948 44.3246 33.9237 45.6577C38.1398 47.3462 39.8911 51.0438 42.289 51.8464C47.7604 53.6777 56.7044 53.372 60.0634 53.6777C64.7011 54.0998 72.29 54.0998 71.8684 60.4313C71.6024 64.4269 49.1016 61.2755 40.2479 61.2755" stroke="#242424" stroke-width="4"/>
</svg>
