<svg width="94" height="94" viewBox="0 0 94 94" fill="none" xmlns="http://www.w3.org/2000/svg">
<mask id="path-1-inside-1" fill="white">
<path fill-rule="evenodd" clip-rule="evenodd" d="M28.8303 10H13.8814V23.846L0 23.846V38.757H13.8814V52.603H28.8303V38.757H42.7111V23.846L28.8303 23.846V10Z"/>
</mask>
<path d="M13.8814 10V6H9.88139V10H13.8814ZM28.8303 10H32.8303V6H28.8303V10ZM13.8814 23.846V27.846L17.8814 27.846V23.846H13.8814ZM0 23.846L2.74807e-07 19.846H-4V23.846H0ZM0 38.757H-4V42.757H0V38.757ZM13.8814 38.757H17.8814V34.757H13.8814V38.757ZM13.8814 52.603H9.88139V56.603H13.8814V52.603ZM28.8303 52.603V56.603H32.8303V52.603H28.8303ZM28.8303 38.757V34.757H24.8303V38.757H28.8303ZM42.7111 38.757V42.757H46.7111V38.757H42.7111ZM42.7111 23.846H46.7111V19.846H42.7111V23.846ZM28.8303 23.846H24.8303V27.846H28.8303V23.846ZM13.8814 14H28.8303V6H13.8814V14ZM17.8814 23.846V10H9.88139V23.846H17.8814ZM-2.74807e-07 27.846H13.8814V19.846L2.74807e-07 19.846L-2.74807e-07 27.846ZM4 38.757V23.846H-4V38.757H4ZM13.8814 34.757H0V42.757H13.8814V34.757ZM17.8814 52.603V38.757H9.88139V52.603H17.8814ZM28.8303 48.603H13.8814V56.603H28.8303V48.603ZM24.8303 38.757V52.603H32.8303V38.757H24.8303ZM42.7111 34.757H28.8303V42.757H42.7111V34.757ZM38.7111 23.846V38.757H46.7111V23.846H38.7111ZM28.8303 27.846L42.7111 27.846V19.846L28.8303 19.846V27.846ZM24.8303 10V23.846H32.8303V10H24.8303Z" fill="#FFC41E" mask="url(#path-1-inside-1)"/>
<path d="M43.745 47.9576L62.5742 54.4733V81.0531C62.5742 81.5694 62.3625 82.0646 61.9857 82.4297C61.6089 82.7948 61.0979 82.9999 60.565 82.9999H52.5279C51.9951 82.9999 51.484 82.7948 51.1072 82.4297C50.7304 82.0646 50.5187 81.5694 50.5187 81.0531V67.4255H30.4261V81.0531C30.4261 81.5694 30.2144 82.0646 29.8376 82.4297C29.4608 82.7948 28.9497 82.9999 28.4168 82.9999H20.3798C19.8469 82.9999 19.3358 82.7948 18.959 82.4297C18.5822 82.0646 18.3705 81.5694 18.3705 81.0531V55.0257C13.704 53.4135 10.3335 49.1329 10.3335 44.064C10.3335 43.0313 10.7569 42.041 11.5105 41.3108C12.2641 40.5806 13.2862 40.1704 14.352 40.1704C15.4178 40.1704 16.4399 40.5806 17.1935 41.3108C17.9472 42.041 18.3705 43.0313 18.3705 44.064C18.3725 45.096 18.7965 46.0853 19.5497 46.815C20.3029 47.5448 21.3239 47.9556 22.3891 47.9576H43.745ZM74.6298 34.33V38.2236C74.6298 40.2889 73.783 42.2696 72.2758 43.73C70.7686 45.1903 68.7243 46.0108 66.5928 46.0108H62.5742V50.34L46.5002 44.7782V26.5428C46.5002 24.8089 48.6626 23.9402 49.9297 25.1667L53.3555 28.4896H60.0903C61.4604 28.4896 63.0728 29.4533 63.6844 30.642L64.5835 32.3832H72.6205C73.1534 32.3832 73.6645 32.5883 74.0413 32.9534C74.4181 33.3185 74.6298 33.8137 74.6298 34.33ZM60.565 34.33C60.565 33.945 60.4471 33.5686 60.2264 33.2484C60.0056 32.9283 59.6918 32.6787 59.3246 32.5314C58.9575 32.384 58.5535 32.3455 58.1637 32.4206C57.774 32.4957 57.416 32.6811 57.135 32.9534C56.854 33.2257 56.6626 33.5725 56.5851 33.9502C56.5075 34.3278 56.5473 34.7193 56.6994 35.075C56.8515 35.4307 57.109 35.7348 57.4394 35.9487C57.7699 36.1626 58.1583 36.2768 58.5557 36.2768C59.0886 36.2768 59.5997 36.0717 59.9765 35.7066C60.3533 35.3415 60.565 34.8463 60.565 34.33Z" fill="#242424"/>
<path d="M93.0003 70.9749C93.0003 77.6746 87.4835 82.9999 80.5429 82.9999H69.8651C62.9246 82.9999 57.4077 77.6746 57.4077 70.9749V65.8213H93.0003V70.9749Z" fill="#FFC41E"/>
</svg>
