<svg width="94" height="94" viewBox="0 0 94 94" fill="none" xmlns="http://www.w3.org/2000/svg">
<path d="M87 42.9772L47 10.9607" stroke="#242424" stroke-width="4" stroke-linecap="round" stroke-linejoin="round"/>
<path d="M7 42.9772L47 10.9607" stroke="#242424" stroke-width="4" stroke-linecap="round" stroke-linejoin="round"/>
<path d="M19 87V34.9731" stroke="#242424" stroke-width="4" stroke-linecap="round"/>
<path d="M75 87V34.9731" stroke="#242424" stroke-width="4" stroke-linecap="round"/>
<path d="M19 87H75" stroke="#242424" stroke-width="4" stroke-linecap="round"/>
<path d="M47.2877 52.7486L57.7216 56.3939V71.2642C57.7216 71.5531 57.6043 71.8301 57.3955 72.0344C57.1867 72.2386 56.9035 72.3534 56.6082 72.3534H52.1546C51.8593 72.3534 51.5761 72.2386 51.3673 72.0344C51.1585 71.8301 51.0412 71.5531 51.0412 71.2642V63.6401H39.9072V71.2642C39.9072 71.5531 39.7899 71.8301 39.5811 72.0344C39.3723 72.2386 39.0891 72.3534 38.7938 72.3534H34.3402C34.0449 72.3534 33.7617 72.2386 33.5529 72.0344C33.3441 71.8301 33.2268 71.5531 33.2268 71.2642V56.7029C30.6409 55.8009 28.7732 53.4062 28.7732 50.5703C28.7732 49.9925 29.0078 49.4385 29.4254 49.03C29.843 48.6215 30.4094 48.392 31 48.392C31.5906 48.392 32.157 48.6215 32.5746 49.03C32.9922 49.4385 33.2268 49.9925 33.2268 50.5703C33.2279 51.1477 33.4629 51.7011 33.8802 52.1094C34.2976 52.5177 34.8634 52.7475 35.4536 52.7486H47.2877ZM64.4021 45.1245V47.3028C64.4021 48.4582 63.9328 49.5664 63.0976 50.3834C62.2624 51.2004 61.1296 51.6594 59.9485 51.6594H57.7216V54.0814L48.8144 50.9699V40.7679C48.8144 39.7978 50.0127 39.3118 50.7149 39.998L52.6132 41.857H56.3452C57.1044 41.857 57.9979 42.3961 58.3368 43.0612L58.835 44.0353H63.2887C63.584 44.0353 63.8671 44.1501 64.076 44.3543C64.2848 44.5586 64.4021 44.8356 64.4021 45.1245ZM56.6082 45.1245C56.6082 44.9091 56.5429 44.6985 56.4206 44.5194C56.2983 44.3403 56.1244 44.2007 55.9209 44.1182C55.7175 44.0358 55.4936 44.0142 55.2776 44.0563C55.0616 44.0983 54.8633 44.202 54.7075 44.3543C54.5518 44.5067 54.4458 44.7007 54.4028 44.912C54.3599 45.1233 54.3819 45.3423 54.4662 45.5413C54.5505 45.7403 54.6932 45.9104 54.8763 46.0301C55.0594 46.1498 55.2746 46.2136 55.4948 46.2136C55.7901 46.2136 56.0733 46.0989 56.2821 45.8946C56.4909 45.6904 56.6082 45.4133 56.6082 45.1245Z" fill="#242424"/>
<path d="M41.7669 13.6964C41.2141 12.386 40.417 11.1985 39.4202 10.2005C38.4227 9.1994 37.2466 8.40387 35.9559 7.85714C34.6175 7.28795 33.182 6.99661 31.7327 7.00003C29.6995 7.00003 27.7158 7.57003 25.9919 8.64669C25.5794 8.90424 25.1876 9.18713 24.8165 9.49535C24.4453 9.18713 24.0535 8.90424 23.6411 8.64669C21.9172 7.57003 19.9334 7.00003 17.9002 7.00003C16.4361 7.00003 15.0174 7.28714 13.6771 7.85714C12.3821 8.40602 11.2149 9.19557 10.2127 10.2005C9.21467 11.1974 8.41739 12.3852 7.86608 13.6964C7.29282 15.0602 7 16.5084 7 17.9988C7 19.4048 7.28044 20.8699 7.83721 22.3604C8.30324 23.6059 8.97136 24.8979 9.82507 26.2026C11.1778 28.2672 13.0378 30.4205 15.3473 32.6034C19.1746 36.2218 22.9647 38.7214 23.1256 38.8227L24.103 39.4645C24.536 39.7474 25.0928 39.7474 25.5258 39.4645L26.5033 38.8227C26.6641 38.7171 30.4501 36.2218 34.2815 32.6034C36.591 30.4205 38.451 28.2672 39.8038 26.2026C40.6575 24.8979 41.3297 23.6059 41.7916 22.3604C42.3484 20.8699 42.6288 19.4048 42.6288 17.9988C42.6329 16.5084 42.3401 15.0602 41.7669 13.6964Z" fill="#FFC41E"/>
</svg>
