<svg width="94" height="94" viewBox="0 0 94 94" fill="none" xmlns="http://www.w3.org/2000/svg">
<path d="M20 57.3465V27.0196C20 25.5572 20.5729 24.1547 21.5927 23.1206C22.6126 22.0866 23.9957 21.5056 25.438 21.5056V21.5056C26.8802 21.5056 28.2634 22.0866 29.2832 23.1206C30.303 24.1547 30.876 25.5572 30.876 27.0196V46.3186" stroke="black" stroke-width="4" stroke-linecap="round" stroke-linejoin="round"/>
<path d="M30.876 46.5001V16.1732C30.876 14.7108 31.4738 13.3083 32.538 12.2742C33.6021 11.2401 35.0454 10.6592 36.5504 10.6592C38.0553 10.6592 39.4987 11.2401 40.5628 12.2742C41.627 13.3083 42.2248 14.7108 42.2248 16.1732V43.7431" stroke="black" stroke-width="4" stroke-linecap="round" stroke-linejoin="round"/>
<path d="M53.1008 43.8122V18.9708C53.1008 17.5168 53.6987 16.1224 54.7628 15.0942C55.827 14.0661 57.2703 13.4885 58.7752 13.4885V13.4885C60.2802 13.4885 61.7235 14.0661 62.7877 15.0942C63.8518 16.1224 64.4497 17.5168 64.4497 18.9708V57.3465" stroke="black" stroke-width="4" stroke-linecap="round" stroke-linejoin="round"/>
<path d="M42.2246 43.6705V10.5244C42.2246 9.0592 42.7975 7.65406 43.8174 6.61804C44.8372 5.58203 46.2204 5 47.6626 5C49.1048 5 50.488 5.58203 51.5078 6.61804C52.5276 7.65406 53.1006 9.0592 53.1006 10.5244V43.6705" stroke="black" stroke-width="4" stroke-linecap="round" stroke-linejoin="round"/>
<path d="M20 57.4721C20 77.8355 31.0896 87.9999 46.3379 87.9999C61.5862 87.9999 67.7739 81.1311 71.2896 72.736L80.423 47.7587C81.577 44.6278 81.0537 41.7242 78.3662 40.1961C75.677 38.6662 72.1439 39.4537 70.6884 42.222L64.3586 57.4721" stroke="black" stroke-width="4" stroke-linecap="round" stroke-linejoin="round"/>
<path fill-rule="evenodd" clip-rule="evenodd" d="M49.3461 60.139C49.4944 60.161 49.6442 60.1721 49.7941 60.1721C50.8932 60.1721 51.9611 59.592 52.8033 58.5382C53.5528 57.6002 54.0737 56.3375 54.2718 54.9809C54.7404 51.754 53.3129 48.966 51.022 48.6286C50.8737 48.6066 50.724 48.5955 50.574 48.5955C49.4763 48.5969 48.4063 49.1763 47.5655 50.228C46.8153 51.1653 46.2916 52.4294 46.0963 53.7881C45.6277 57.0151 47.0552 59.803 49.3461 60.139ZM40.8085 60.1722C39.7101 60.1722 38.6414 59.592 37.7993 58.5382C37.0491 57.6002 36.5254 56.3375 36.33 54.9824C35.8615 51.754 37.289 48.9661 39.5799 48.6301C39.7282 48.608 39.8779 48.5969 40.0279 48.5969C41.1255 48.5969 42.1956 49.1764 43.0364 50.228C43.7866 51.1654 44.3103 52.4295 44.5063 53.7867C44.9748 57.0151 43.5474 59.803 41.2565 60.139C41.1082 60.1611 40.9584 60.1722 40.8085 60.1722ZM61.8891 58.1077C61.4963 57.1767 60.8438 56.5055 60.0016 56.1674L59.9903 56.1632C59.607 56.0134 59.1989 55.9368 58.7872 55.9373H58.7419C56.8141 55.9662 54.8459 57.6002 53.8452 60.0035C53.1113 61.7609 53.027 63.6511 53.6201 65.0599C54.0122 65.9915 54.6661 66.6628 55.5118 67.0008L55.521 67.0044C55.9044 67.154 56.3125 67.2306 56.7242 67.2302C58.6704 67.2302 60.6591 65.5963 61.6782 63.1612C62.4029 61.4059 62.4829 59.5172 61.8891 58.1077ZM54.1864 68.4731C53.0746 67.8068 52.0236 67.1766 51.3371 66.0444C49.4433 62.9106 48.2996 61.0191 45.301 61.0191C42.3024 61.0191 41.1559 62.9106 39.2578 66.0444C38.5706 67.1768 37.519 67.8076 36.4049 68.476L36.4014 68.4781L36.4013 68.4781C35.1225 69.2446 33.8012 70.0365 33.2308 71.5949C33.0091 72.1567 32.8974 72.7557 32.9017 73.3594C32.9017 75.8968 34.8834 77.9613 37.3179 77.9613C38.5741 77.9613 39.911 77.5272 41.3257 77.0678C42.686 76.6259 44.0922 76.1693 45.3081 76.1693C46.5239 76.1693 47.9266 76.6259 49.2819 77.0678L49.3201 77.0801C50.7178 77.5322 52.0357 77.9585 53.2841 77.9585C55.7151 77.9585 57.6932 75.894 57.6932 73.3566C57.6952 72.7524 57.5811 72.1534 57.357 71.5921C56.7867 70.0325 55.465 69.2399 54.1871 68.4735L54.1864 68.4731ZM35.0907 67.0008L35.0808 67.0044C34.6982 67.1539 34.2908 67.2306 33.8798 67.2302C31.9357 67.2302 29.9477 65.5956 28.9335 63.1634C28.2011 61.4059 28.1175 59.5179 28.7106 58.1062C29.102 57.1753 29.7552 56.5019 30.5974 56.1667L30.6073 56.1632C30.9906 56.0133 31.3987 55.9367 31.8104 55.9373C33.7545 55.9373 35.7425 57.5719 36.7567 60.0042C37.4892 61.7616 37.5727 63.6497 36.9796 65.0613C36.5883 65.9922 35.935 66.6628 35.0907 67.0008Z" fill="#FFC41E"/>
</svg>
